<svg width="20" height="20" viewBox="0 0 20 20" fill="none" xmlns="http://www.w3.org/2000/svg">
<path d="M13.4316 9.81787C13.4728 10.0178 13.4196 10.2214 13.2744 10.3862L9.73438 14.4087C9.59014 14.5632 9.40321 14.6421 9.22461 14.6421C9.21056 14.6421 9.1967 14.6391 9.18262 14.6382L9.6748 14.0806L12.958 10.356L13.4316 9.81787ZM8.6748 10.4751C8.70493 10.4751 8.73609 10.4876 8.76172 10.5132C8.78734 10.5388 8.79978 10.57 8.7998 10.6001V14.4927C8.64251 14.368 8.5498 14.1822 8.5498 13.9751V10.7251H7.2334C7.02215 10.7251 6.83485 10.6313 6.70996 10.4751H8.6748ZM10.3242 5.91943L7.04102 9.64502L6.57324 10.1753C6.54362 10.0115 6.57622 9.84571 6.67188 9.70166L6.7334 9.62256L10.2812 5.58936L10.2822 5.59033C10.4229 5.43168 10.615 5.35262 10.8125 5.36475L10.3242 5.91943ZM11.2002 5.51416C11.3579 5.63883 11.4502 5.82636 11.4502 6.03369V9.28369H12.7744C12.9817 9.28369 13.1662 9.37392 13.291 9.5249H11.3252C11.295 9.5249 11.2629 9.51246 11.2373 9.48682C11.2119 9.46125 11.2002 9.42989 11.2002 9.3999V5.51416Z" fill="#505050" stroke="#505050"/>
<path d="M9.97461 1.5415C14.632 1.5415 18.4334 5.33444 18.4336 9.99951C18.4336 14.665 14.6401 18.4585 9.97461 18.4585C5.31726 18.4583 1.5166 14.6646 1.5166 9.99951C1.51678 5.33455 5.31737 1.54168 9.97461 1.5415ZM9.97461 1.7915C5.44872 1.79168 1.76678 5.47363 1.7666 9.99951C1.7666 14.5255 5.44862 18.2083 9.97461 18.2085C14.5008 18.2085 18.1836 14.5257 18.1836 9.99951C18.1834 5.47352 14.5006 1.7915 9.97461 1.7915Z" fill="#505050" stroke="#505050"/>
</svg>
