<svg width="32" height="32" viewBox="0 0 32 32" fill="none" xmlns="http://www.w3.org/2000/svg">
<rect width="32" height="32" rx="16" fill="white"/>
<path d="M15.3668 17.9667L14.1335 19.2C13.8735 19.46 13.4602 19.46 13.1935 19.2067C13.1202 19.1334 13.0468 19.0667 12.9735 18.9934C12.2868 18.3 11.6668 17.5734 11.1135 16.8134C10.5668 16.0534 10.1268 15.2934 9.80683 14.54C9.4935 13.78 9.3335 13.0534 9.3335 12.36C9.3335 11.9067 9.4135 11.4734 9.5735 11.0734C9.7335 10.6667 9.98683 10.2934 10.3402 9.96004C10.7668 9.54004 11.2335 9.33337 11.7268 9.33337C11.9135 9.33337 12.1002 9.37337 12.2668 9.45337C12.4402 9.53337 12.5935 9.65337 12.7135 9.82671L14.2602 12.0067C14.3802 12.1734 14.4668 12.3267 14.5268 12.4734C14.5868 12.6134 14.6202 12.7534 14.6202 12.88C14.6202 13.04 14.5735 13.2 14.4802 13.3534C14.3935 13.5067 14.2668 13.6667 14.1068 13.8267L13.6002 14.3534C13.5268 14.4267 13.4935 14.5134 13.4935 14.62C13.4935 14.6734 13.5002 14.72 13.5135 14.7734C13.5335 14.8267 13.5535 14.8667 13.5668 14.9067C13.6868 15.1267 13.8935 15.4134 14.1868 15.76C14.4868 16.1067 14.8068 16.46 15.1535 16.8134C15.2202 16.88 15.2935 16.9467 15.3602 17.0134C15.6268 17.2734 15.6335 17.7 15.3668 17.9667Z" fill="#DD673C"/>
<path d="M22.6466 20.22C22.6466 20.4067 22.6132 20.6 22.5466 20.7867C22.5266 20.84 22.5066 20.8933 22.4799 20.9467C22.3666 21.1867 22.2199 21.4133 22.0266 21.6267C21.6999 21.9867 21.3399 22.2467 20.9332 22.4133C20.9266 22.4133 20.9199 22.42 20.9132 22.42C20.5199 22.58 20.0932 22.6667 19.6332 22.6667C18.9532 22.6667 18.2266 22.5067 17.4599 22.18C16.6932 21.8533 15.9266 21.4133 15.1666 20.86C14.9066 20.6667 14.6466 20.4733 14.3999 20.2667L16.5799 18.0867C16.7666 18.2267 16.9332 18.3333 17.0732 18.4067C17.1066 18.42 17.1466 18.44 17.1932 18.46C17.2466 18.48 17.2999 18.4867 17.3599 18.4867C17.4732 18.4867 17.5599 18.4467 17.6332 18.3733L18.1399 17.8733C18.3066 17.7067 18.4666 17.58 18.6199 17.5C18.7732 17.4067 18.9266 17.36 19.0932 17.36C19.2199 17.36 19.3532 17.3867 19.4999 17.4467C19.6466 17.5067 19.7999 17.5933 19.9666 17.7067L22.1732 19.2733C22.3466 19.3933 22.4666 19.5333 22.5399 19.7C22.6066 19.8667 22.6466 20.0333 22.6466 20.22Z" fill="#DD673C"/>
</svg>
